<?xml version="1.0" standalone="no"?>
<!DOCTYPE svg PUBLIC "-//W3C//DTD SVG 20010904//EN"
 "http://www.w3.org/TR/2001/REC-SVG-20010904/DTD/svg10.dtd">
<svg version="1.0" xmlns="http://www.w3.org/2000/svg"
 width="500.000000pt" height="498.000000pt" viewBox="0 0 500.000000 498.000000"
 preserveAspectRatio="xMidYMid meet">

<g transform="translate(0.000000,498.000000) scale(0.100000,-0.100000)"
fill="#000000" stroke="none">
<path d="M980 2685 l0 -315 25 0 25 0 2 268 3 267 74 -125 c231 -390 225 -381
239 -363 6 9 12 20 12 23 0 7 -214 372 -286 488 -36 57 -50 72 -70 72 l-24 0
0 -315z"/>
<path d="M1880 2684 l0 -315 28 3 27 3 3 313 2 312 -30 0 -30 0 0 -316z"/>
<path d="M2340 2989 c-116 -23 -213 -97 -245 -189 -22 -64 -19 -194 6 -250 61
-135 172 -180 447 -180 l152 0 0 160 0 160 -120 0 -120 0 0 -30 0 -30 95 0 95
0 0 -105 0 -105 -135 0 c-160 0 -220 11 -283 53 -72 49 -97 102 -97 207 0 72
4 92 25 130 56 100 170 140 394 140 l136 0 0 25 0 25 -152 -1 c-84 -1 -173 -5
-198 -10z"/>
<path d="M2840 2975 l0 -25 120 0 120 0 0 -290 0 -290 25 0 25 0 2 288 3 287
118 3 117 3 0 24 0 25 -265 0 -265 0 0 -25z"/>
<path d="M3510 2686 l0 -316 30 0 30 0 0 290 0 290 128 0 c144 0 194 -10 228
-47 33 -35 33 -101 1 -131 -31 -29 -86 -51 -151 -58 -31 -4 -56 -9 -56 -11 0
-2 59 -78 131 -169 124 -155 133 -164 166 -164 42 0 47 -10 -89 157 -59 72
-108 136 -108 142 0 6 8 11 18 11 41 0 116 37 149 74 33 36 35 42 31 97 -5 66
-21 89 -83 122 -36 19 -60 22 -232 25 l-193 4 0 -316z"/>
<path d="M4510 2971 c-13 -32 -27 3 181 -436 73 -153 78 -160 108 -163 17 -2
31 0 31 5 0 5 -48 105 -106 223 -58 118 -126 257 -150 308 -24 50 -45 92 -47
92 -3 0 -10 -13 -17 -29z"/>
<path d="M1707 2944 l-27 -45 2 -262 3 -262 28 -3 27 -3 0 310 c0 171 -1 311
-3 311 -1 0 -15 -21 -30 -46z"/>
<path d="M510 2808 c-74 -27 -156 -57 -182 -66 -27 -9 -48 -19 -48 -22 0 -3
41 -16 92 -29 l91 -23 96 96 c53 53 94 96 91 95 -3 0 -66 -23 -140 -51z"/>
</g>
</svg>
